<svg data-v-fde0c5aa="" xmlns="http://www.w3.org/2000/svg" viewBox="0 0 300 300" class="font"><!----><defs data-v-fde0c5aa=""><!----></defs><rect data-v-fde0c5aa="" fill="#0D9E86" x="0" y="0" width="300px" height="300px" class="logo-background-square"></rect><defs data-v-fde0c5aa=""><!----></defs><g data-v-fde0c5aa="" id="ad437815-f8ba-4a90-ad30-12603fe3d63b" fill="#FBE1D5" transform="matrix(2.2019818710428383,0,0,2.2019818710428383,36.895205635328686,128.57471582776031)"><path d="M1.41 4.03L2.53 4.03L2.53 8.11L6.47 4.03L7.99 4.03L4.14 7.99L8.23 12.84L6.80 12.84L3.40 8.76L2.53 9.66L2.53 12.84L1.41 12.84L1.41 4.03ZM12.25 12.10L12.25 12.10L12.25 12.10Q13.64 12.10 13.83 10.88L13.83 10.88L14.97 10.88L14.97 10.88Q14.81 11.89 14.08 12.44L14.08 12.44L14.08 12.44Q13.34 12.99 12.25 12.99L12.25 12.99L12.25 12.99Q10.91 12.99 10.07 12.03L10.07 12.03L10.07 12.03Q9.23 11.07 9.23 9.48L9.23 9.48L9.23 9.48Q9.23 7.88 10.07 6.93L10.07 6.93L10.07 6.93Q10.92 5.98 12.33 5.98L12.33 5.98L12.33 5.98Q13.73 5.98 14.43 7.07L14.43 7.07L14.43 7.07Q15.12 8.16 14.91 9.73L14.91 9.73L10.33 9.73L10.33 9.73Q10.33 10.77 10.84 11.43L10.84 11.43L10.84 11.43Q11.34 12.10 12.25 12.10ZM13.06 7.03L13.06 7.03L13.06 7.03Q12.74 6.86 12.28 6.86L12.28 6.86L12.28 6.86Q11.42 6.86 10.93 7.44L10.93 7.44L10.93 7.44Q10.43 8.02 10.35 8.89L10.35 8.89L13.92 8.89L13.92 8.89Q13.92 7.49 13.06 7.03ZM17.15 12.84L17.15 3.30L18.26 3.30L18.26 12.84L17.15 12.84ZM24.39 4.03L26.98 4.03L26.98 4.03Q28.97 4.03 30.16 5.23L30.16 5.23L30.16 5.23Q31.36 6.43 31.36 8.44L31.36 8.44L31.36 8.44Q31.36 10.44 30.16 11.64L30.16 11.64L30.16 11.64Q28.97 12.84 26.98 12.84L26.98 12.84L24.39 12.84L24.39 4.03ZM25.49 5.01L25.49 11.87L26.98 11.87L26.98 11.87Q28.45 11.87 29.32 10.90L29.32 10.90L29.32 10.90Q30.18 9.93 30.18 8.43L30.18 8.43L30.18 8.43Q30.18 6.93 29.31 5.97L29.31 5.97L29.31 5.97Q28.43 5.01 26.98 5.01L26.98 5.01L25.49 5.01ZM33.73 12.84L33.73 6.13L34.83 6.13L34.83 12.84L33.73 12.84ZM34.27 4.56L34.27 4.56L34.27 4.56Q33.94 4.56 33.75 4.38L33.75 4.38L33.75 4.38Q33.56 4.19 33.56 3.87L33.56 3.87L33.56 3.87Q33.56 3.56 33.75 3.37L33.75 3.37L33.75 3.37Q33.94 3.18 34.27 3.18L34.27 3.18L34.27 3.18Q34.61 3.18 34.81 3.37L34.81 3.37L34.81 3.37Q35.01 3.56 35.01 3.87L35.01 3.87L35.01 3.87Q35.01 4.19 34.81 4.38L34.81 4.38L34.81 4.38Q34.61 4.56 34.27 4.56ZM38.12 12.63L38.12 12.63L38.12 12.63Q37.28 12.22 37.28 11.38L37.28 11.38L37.28 11.38Q37.28 10.95 37.61 10.62L37.61 10.62L37.61 10.62Q37.94 10.29 38.43 10.18L38.43 10.18L38.43 10.18Q37.67 9.51 37.67 8.41L37.67 8.41L37.67 8.41Q37.67 7.32 38.45 6.65L38.45 6.65L38.45 6.65Q39.23 5.98 40.29 5.98L40.29 5.98L40.29 5.98Q41.36 5.98 42.10 6.48L42.10 6.48L42.10 6.48Q42.20 5.74 42.69 5.29L42.69 5.29L42.69 5.29Q43.19 4.84 44.00 4.84L44.00 4.84L43.90 5.94L43.90 5.94Q42.67 5.94 42.62 6.97L42.62 6.97L42.62 6.97Q43.11 7.57 43.11 8.41L43.11 8.41L43.11 8.41Q43.11 9.49 42.33 10.19L42.33 10.19L42.33 10.19Q41.55 10.88 40.39 10.88L40.39 10.88L40.39 10.88Q39.59 10.88 38.98 10.56L38.98 10.56L38.98 10.56Q38.70 10.61 38.47 10.82L38.47 10.82L38.47 10.82Q38.25 11.02 38.25 11.37L38.25 11.37L38.25 11.37Q38.25 12.11 39.48 12.11L39.48 12.11L42.08 12.11L42.08 12.11Q43.02 12.11 43.57 12.51L43.57 12.51L43.57 12.51Q44.11 12.91 44.11 13.62L44.11 13.62L44.11 13.62Q44.11 14.69 43.04 15.48L43.04 15.48L43.04 15.48Q41.97 16.28 40.33 16.28L40.33 16.28L40.33 16.28Q38.70 16.28 37.76 15.67L37.76 15.67L37.76 15.67Q36.82 15.06 36.82 14.14L36.82 14.14L36.82 14.14Q36.82 13.54 37.18 13.16L37.18 13.16L37.18 13.16Q37.53 12.78 38.12 12.63ZM37.91 14.10L37.91 14.10L37.91 14.10Q37.91 14.63 38.49 15.02L38.49 15.02L38.49 15.02Q39.07 15.40 40.26 15.40L40.26 15.40L40.26 15.40Q41.44 15.40 42.23 14.89L42.23 14.89L42.23 14.89Q43.02 14.38 43.02 13.69L43.02 13.69L43.02 13.69Q43.02 13.37 42.79 13.14L42.79 13.14L42.79 13.14Q42.56 12.91 42.08 12.91L42.08 12.91L39.38 12.91L39.38 12.91Q38.67 12.94 38.29 13.25L38.29 13.25L38.29 13.25Q37.91 13.57 37.91 14.10ZM42.03 8.41L42.03 8.41L42.03 8.41Q42.03 7.69 41.59 7.23L41.59 7.23L41.59 7.23Q41.16 6.78 40.40 6.78L40.40 6.78L40.40 6.78Q39.63 6.78 39.20 7.23L39.20 7.23L39.20 7.23Q38.77 7.69 38.77 8.41L38.77 8.41L38.77 8.41Q38.77 9.14 39.21 9.61L39.21 9.61L39.21 9.61Q39.65 10.08 40.40 10.08L40.40 10.08L40.40 10.08Q41.16 10.08 41.59 9.60L41.59 9.60L41.59 9.60Q42.03 9.13 42.03 8.41ZM45.82 12.84L45.82 6.13L46.93 6.13L46.93 12.84L45.82 12.84ZM46.37 4.56L46.37 4.56L46.37 4.56Q46.03 4.56 45.84 4.38L45.84 4.38L45.84 4.38Q45.65 4.19 45.65 3.87L45.65 3.87L45.65 3.87Q45.65 3.56 45.84 3.37L45.84 3.37L45.84 3.37Q46.03 3.18 46.37 3.18L46.37 3.18L46.37 3.18Q46.70 3.18 46.91 3.37L46.91 3.37L46.91 3.37Q47.11 3.56 47.11 3.87L47.11 3.87L47.11 3.87Q47.11 4.19 46.91 4.38L46.91 4.38L46.91 4.38Q46.70 4.56 46.37 4.56ZM53.28 11.86L53.44 12.64L53.44 12.64Q52.23 13.20 51.24 12.88L51.24 12.88L51.24 12.88Q50.53 12.66 50.23 11.94L50.23 11.94L50.23 11.94Q50.08 11.59 50.08 11.10L50.08 11.10L50.08 6.99L49.00 6.99L49.00 6.15L50.08 6.15L50.08 4.28L51.17 4.28L51.17 6.15L53.27 6.15L53.27 6.99L51.17 6.99L51.17 11.09L51.17 11.09Q51.17 12.11 52.12 12.11L52.12 12.11L52.12 12.11Q52.64 12.11 53.28 11.86L53.28 11.86ZM59.35 9.35L59.35 8.50L59.35 8.50Q59.35 7.59 58.97 7.20L58.97 7.20L58.97 7.20Q58.59 6.80 57.87 6.80L57.87 6.80L57.87 6.80Q57.15 6.80 56.71 7.09L56.71 7.09L56.71 7.09Q56.27 7.38 56.27 7.99L56.27 7.99L55.05 7.99L55.05 7.99Q55.05 6.45 56.70 6.09L56.70 6.09L56.70 6.09Q57.20 5.98 57.79 5.98L57.79 5.98L57.79 5.98Q59.04 5.98 59.74 6.61L59.74 6.61L59.74 6.61Q60.44 7.24 60.44 8.53L60.44 8.53L60.44 12.84L59.49 12.84L59.37 11.72L59.37 11.72Q58.76 12.99 57.15 12.99L57.15 12.99L57.15 12.99Q56.07 12.99 55.42 12.39L55.42 12.39L55.42 12.39Q54.77 11.79 54.77 10.89L54.77 10.89L54.77 10.89Q54.77 10.00 55.49 9.49L55.49 9.49L55.49 9.49Q56.21 8.99 57.29 8.99L57.29 8.99L57.29 8.99Q58.37 8.99 59.35 9.35L59.35 9.35ZM59.35 10.05L59.35 10.05L59.35 10.05Q58.35 9.77 57.61 9.77L57.61 9.77L57.61 9.77Q56.87 9.77 56.41 10.04L56.41 10.04L56.41 10.04Q55.94 10.30 55.94 10.88L55.94 10.88L55.94 10.88Q55.94 12.14 57.37 12.14L57.37 12.14L57.37 12.14Q58.18 12.14 58.77 11.56L58.77 11.56L58.77 11.56Q59.35 10.98 59.35 10.05ZM63.04 12.84L63.04 3.30L64.15 3.30L64.15 12.84L63.04 12.84ZM70.29 12.84L70.29 4.03L73.58 4.03L73.58 4.03Q74.97 4.03 75.72 4.69L75.72 4.69L75.72 4.69Q76.47 5.35 76.47 6.34L76.47 6.34L76.47 6.34Q76.47 7.10 76.05 7.66L76.05 7.66L76.05 7.66Q75.64 8.22 74.80 8.41L74.80 8.41L74.80 8.41Q75.63 8.55 76.13 9.13L76.13 9.13L76.13 9.13Q76.62 9.70 76.62 10.43L76.62 10.43L76.62 10.43Q76.62 12.05 75.04 12.63L75.04 12.63L75.04 12.63Q74.45 12.84 73.60 12.84L73.60 12.84L70.29 12.84ZM71.40 11.87L73.57 11.87L73.57 11.87Q74.58 11.87 75.01 11.47L75.01 11.47L75.01 11.47Q75.45 11.06 75.45 10.39L75.45 10.39L75.45 10.39Q75.45 9.72 74.97 9.32L74.97 9.32L74.97 9.32Q74.49 8.92 73.57 8.92L73.57 8.92L71.40 8.92L71.40 11.87ZM71.40 4.98L71.40 7.97L73.56 7.97L73.56 7.97Q74.37 7.97 74.85 7.57L74.85 7.57L74.85 7.57Q75.33 7.17 75.33 6.47L75.33 6.47L75.33 6.47Q75.33 5.77 74.86 5.38L74.86 5.38L74.86 5.38Q74.40 4.98 73.56 4.98L73.56 4.98L71.40 4.98ZM83.15 9.35L83.15 8.50L83.15 8.50Q83.15 7.59 82.77 7.20L82.77 7.20L82.77 7.20Q82.39 6.80 81.67 6.80L81.67 6.80L81.67 6.80Q80.95 6.80 80.51 7.09L80.51 7.09L80.51 7.09Q80.07 7.38 80.07 7.99L80.07 7.99L78.85 7.99L78.85 7.99Q78.85 6.45 80.50 6.09L80.50 6.09L80.50 6.09Q81.00 5.98 81.59 5.98L81.59 5.98L81.59 5.98Q82.84 5.98 83.54 6.61L83.54 6.61L83.54 6.61Q84.24 7.24 84.24 8.53L84.24 8.53L84.24 12.84L83.29 12.84L83.17 11.72L83.17 11.72Q82.56 12.99 80.95 12.99L80.95 12.99L80.95 12.99Q79.87 12.99 79.22 12.39L79.22 12.39L79.22 12.39Q78.57 11.79 78.57 10.89L78.57 10.89L78.57 10.89Q78.57 10.00 79.29 9.49L79.29 9.49L79.29 9.49Q80.01 8.99 81.09 8.99L81.09 8.99L81.09 8.99Q82.17 8.99 83.15 9.35L83.15 9.35ZM83.15 10.05L83.15 10.05L83.15 10.05Q82.15 9.77 81.41 9.77L81.41 9.77L81.41 9.77Q80.67 9.77 80.21 10.04L80.21 10.04L80.21 10.04Q79.74 10.30 79.74 10.88L79.74 10.88L79.74 10.88Q79.74 12.14 81.17 12.14L81.17 12.14L81.17 12.14Q81.98 12.14 82.56 11.56L82.56 11.56L82.56 11.56Q83.15 10.98 83.15 10.05ZM87.78 6.15L87.91 7.43L87.91 7.43Q88.56 5.98 90.16 5.98L90.16 5.98L90.16 5.98Q91.35 5.98 92.02 6.76L92.02 6.76L92.02 6.76Q92.68 7.55 92.68 8.90L92.68 8.90L92.68 12.84L91.59 12.84L91.59 8.90L91.59 8.90Q91.59 7.94 91.13 7.45L91.13 7.45L91.13 7.45Q90.68 6.96 89.84 6.96L89.84 6.96L89.84 6.96Q89.00 6.96 88.48 7.64L88.48 7.64L88.48 7.64Q87.96 8.33 87.93 9.55L87.93 9.55L87.93 12.84L86.83 12.84L86.83 6.15L87.78 6.15ZM99.96 12.84L97.29 9.30L96.39 10.02L96.39 12.84L95.28 12.84L95.28 3.30L96.39 3.30L96.39 8.85L99.62 6.15L101.16 6.15L98.08 8.65L101.32 12.84L99.96 12.84Z"></path></g><!----><!----></svg>